<svg xmlns="http://www.w3.org/2000/svg" width="16" height="16" viewBox="0 0 16 16">
    <defs>
        <filter id="far7t4zr2a" width="131.2%" height="131.2%" x="-15.6%" y="-15.6%" filterUnits="objectBoundingBox">
            <feOffset in="SourceAlpha" result="shadowOffsetOuter1"/>
            <feGaussianBlur in="shadowOffsetOuter1" result="shadowBlurOuter1" stdDeviation=".5"/>
            <feColorMatrix in="shadowBlurOuter1" result="shadowMatrixOuter1" values="0 0 0 0 0 0 0 0 0 0 0 0 0 0 0 0 0 0 0.5 0"/>
            <feMerge>
                <feMergeNode in="shadowMatrixOuter1"/>
                <feMergeNode in="SourceGraphic"/>
            </feMerge>
        </filter>
    </defs>
    <g fill="none" fill-rule="evenodd">
        <g>
            <g>
                <g filter="url(#far7t4zr2a)" transform="translate(-8.000000, -156.000000) translate(0.000000, 152.000000) translate(8.000000, 4.000000)">
                    <g>
                        <path fill="#FFF" d="M1 0h7.586c.265 0 .52.105.707.293l2.414 2.414c.188.188.293.442.293.707V13c0 .552-.448 1-1 1H1c-.552 0-1-.448-1-1V1c0-.552.448-1 1-1z" transform="translate(2.000000, 1.000000)"/>
                        <path fill="#8D40FF" fill-rule="nonzero" d="M4.635 10l.369-1.195h2.114L7.49 10h1.657L6.784 3.602h-1.45L2.986 10h1.648zm2.114-2.386H5.373l.686-2.22.69 2.22z" transform="translate(2.000000, 1.000000)"/>
                    </g>
                </g>
            </g>
        </g>
    </g>
</svg>
