<svg xmlns="http://www.w3.org/2000/svg" width="40" height="40" viewBox="0 0 40 40">
    <defs>
        <filter id="gsr31n8jia" color-interpolation-filters="auto">
            <feColorMatrix in="SourceGraphic" values="0 0 0 0 0.619608 0 0 0 0 0.619608 0 0 0 0 0.619608 0 0 0 1.000000 0"/>
        </filter>
    </defs>
    <g fill="none" fill-rule="evenodd">
        <g>
            <g filter="url(#gsr31n8jia)" transform="translate(-100.000000, -298.000000) translate(32.000000, 298.000000)">
                <g>
                    <path fill="#FFF" fill-rule="nonzero" d="M13.333 6.667c.92 0 1.667.746 1.667 1.666 0 .855-.643 1.56-1.472 1.656l-.195.011h-5c-.854 0-1.559.643-1.655 1.472l-.011.195v20c0 .854.643 1.559 1.472 1.655l.194.011h23.334c.854 0 1.559-.643 1.655-1.472l.011-.194v-20c0-.855-.643-1.56-1.472-1.656L31.667 10h-5C25.747 10 25 9.254 25 8.333c0-.854.643-1.559 1.472-1.655l.195-.011h5c2.662 0 4.84 2.081 4.991 4.706l.009.294v20c0 2.662-2.082 4.84-4.707 4.991l-.293.009H8.333c-2.662 0-4.84-2.082-4.991-4.707l-.009-.293v-20c0-2.663 2.082-4.84 4.707-4.992l.293-.008h5zM20 3.333c.92 0 1.667.747 1.667 1.667v19.308l3.821-3.82c.613-.612 1.584-.648 2.238-.108l.12.108c.65.651.65 1.706 0 2.357l-6.667 6.667-.024.023c-.02.02-.042.04-.064.058l-.05.042c-.022.018-.046.036-.07.053l-.046.032-.084.053-.075.041c-.032.017-.066.033-.1.047l-.022.01c-.037.015-.074.03-.113.043l-.036.011c-.035.011-.07.02-.106.03l-.049.01c-.029.006-.058.012-.088.016l-.06.008c-.063.007-.127.011-.192.011l.1-.003-.052.002L20 30h-.048l-.052-.003c-.03-.002-.061-.004-.091-.008l-.061-.008c-.03-.004-.06-.01-.089-.016l-.048-.01c-.036-.01-.071-.019-.106-.03l-.036-.011c-.14-.048-.273-.113-.394-.194l-.039-.027c-.029-.02-.057-.042-.085-.064-.045-.037-.088-.076-.13-.117l.103.094c-.03-.026-.06-.052-.089-.08l-.014-.014-6.666-6.667c-.651-.65-.651-1.706 0-2.357.65-.65 1.706-.65 2.357 0l3.821 3.821V5c0-.872.67-1.588 1.523-1.66z" transform="translate(68.000000, 0.000000)"/>
                </g>
            </g>
        </g>
    </g>
</svg>
