<svg xmlns="http://www.w3.org/2000/svg" width="16" height="16" viewBox="0 0 16 16">
    <g fill="none" fill-rule="evenodd">
        <g fill="#FFF" fill-rule="nonzero">
            <g>
                <g>
                    <path d="M5.333 2.667c.369 0 .667.298.667.666 0 .342-.257.624-.589.663L5.333 4h-2c-.342 0-.623.257-.662.589l-.004.078v8c0 .342.257.623.589.662l.077.004h9.334c.342 0 .623-.257.662-.589l.004-.077v-8c0-.342-.257-.624-.589-.663L12.667 4h-2C10.298 4 10 3.702 10 3.333c0-.342.257-.623.589-.662l.078-.004h2c1.065 0 1.935.832 1.996 1.882l.004.118v8c0 1.065-.833 1.935-1.883 1.996l-.117.004H3.333c-1.065 0-1.935-.833-1.996-1.883l-.004-.117v-8c0-1.065.833-1.936 1.883-1.997l.117-.003h2zM8 1.333c.368 0 .667.299.667.667v7.723l1.528-1.528c.235-.234.6-.257.86-.07l.083.07c.26.26.26.683 0 .943l-2.667 2.667-.014.014c-.016.015-.034.03-.052.044l-.026.019c-.016.01-.032.021-.05.03-.014.01-.029.017-.043.024-.017.008-.035.016-.053.022-.01.004-.02.008-.03.01C8.131 11.99 8.066 12 8 12l-.099-.007c-.033-.005-.067-.013-.099-.023l-.039-.013-.052-.023-.034-.017c-.02-.01-.038-.023-.056-.035-.032-.022-.063-.048-.092-.077l.064.056c-.018-.013-.035-.028-.051-.043l-.013-.013-2.667-2.667c-.26-.26-.26-.682 0-.943.26-.26.682-.26.943 0l1.528 1.53V2c0-.335.247-.612.568-.66z" transform="translate(-153.000000, -191.000000) translate(93.000000, 185.000000) translate(60.000000, 6.000000)"/>
                </g>
            </g>
        </g>
    </g>
</svg>
