<svg xmlns="http://www.w3.org/2000/svg" width="108" height="20" viewBox="0 0 108 20">
    <g fill="none" fill-rule="evenodd">
        <g fill="#742DDD" fill-rule="nonzero">
            <g>
                <g>
                    <path d="M9.252 1c5.094 0 9.234 4.176 9.234 9.252 0 5.076-4.158 9.234-9.252 9.234S0 15.328 0 10.234h4.536C2.016 10.18 0 8.128 0 5.608V1h9.252zm59.742.54v15.39H65.79v-1.584c-.774 1.17-1.98 1.818-3.546 1.818-2.862 0-5.166-2.628-5.166-5.814s2.286-5.778 5.166-5.778c1.53 0 2.736.648 3.51 1.764l.036.054V1.54h3.204zM26.586 5.554c2.376 0 4.518 1.224 4.824 3.636v.072h-3.222c-.036-.558-.648-1.062-1.674-1.062-.72 0-1.26.252-1.26.774 0 1.746 6.264-.09 6.282 4.59 0 2.034-1.926 3.6-4.446 3.6-2.862 0-4.878-1.44-5.148-3.924v-.072h3.06c.072.738.864 1.242 1.926 1.242.954 0 1.494-.324 1.494-.846 0-1.836-6.264-.198-6.264-4.356 0-2.088 1.692-3.654 4.428-3.654zM108 1.54v15.372h-3.186v-1.584c-.774 1.17-1.98 1.818-3.546 1.818-2.898 0-5.184-2.628-5.184-5.814s2.286-5.778 5.166-5.778c1.53 0 2.736.648 3.51 1.764l.036.054V1.54H108zm-34.092 0v5.796c.774-1.152 1.962-1.782 3.51-1.782 2.898 0 5.184 2.61 5.184 5.796 0 3.186-2.286 5.796-5.166 5.796-1.494 0-2.7-.63-3.474-1.746l-.036-.054v1.566h-3.204V1.54h3.186zM38.466 5.554c3.024 0 5.49 2.376 5.49 5.436 0 .324-.018.648-.054.972l-.018.162h-8.262c.216 1.44 1.332 2.376 2.826 2.376 1.224 0 1.998-.522 2.196-1.278l.018-.036h3.132c-.36 2.376-2.43 3.924-5.166 3.96h-.234c-3.204-.036-5.742-2.664-5.706-5.85 0-3.258 2.538-5.742 5.778-5.742zm56.322-.018c.324.018.63.054.936.126l.126.018v2.916c-.378-.108-.756-.162-1.152-.162-1.53 0-2.754.9-2.79 2.916v5.562h-3.204V5.77h3.204v1.26c.63-.918 1.638-1.476 2.736-1.494h.144zm-43.47.018c2.833 0 4.555 1.888 4.572 4.964v6.394h-3.204v-5.904c0-1.458-.864-2.412-2.196-2.412-1.314 0-2.178.918-2.196 2.34v5.976H45.09V5.77h3.204v1.44c.702-1.044 1.746-1.656 3.024-1.656zm35.64.216v11.124h-3.204V5.77h3.204zm12.33 5.544c-.018 1.494 1.152 2.736 2.646 2.79h.144c1.494-.036 2.7-1.26 2.7-2.754s-1.206-2.718-2.7-2.736c-1.494-.036-2.754 1.17-2.79 2.7zm-38.988 0c-.018 1.494 1.152 2.736 2.646 2.79h.144c1.494-.036 2.7-1.26 2.7-2.754s-1.206-2.718-2.7-2.736c-1.512-.036-2.772 1.17-2.79 2.7zm16.488-2.772h-.108c-1.53.018-2.754 1.278-2.736 2.808 0 1.548 1.224 2.736 2.808 2.736 1.53-.036 2.754-1.296 2.736-2.808-.018-1.494-1.224-2.7-2.7-2.736zm-38.466-.378c-1.206 0-2.142.594-2.538 1.854l-.018.072h4.842c-.09-1.152-1.098-1.926-2.286-1.926zM85.338 1c1.062 0 1.944.864 1.944 1.926 0 1.062-.846 1.944-1.926 1.944-1.062 0-1.944-.846-1.944-1.926S84.258 1 85.338 1z" transform="translate(-48.000000, -79.000000) translate(32.000000, 65.000000) translate(16.000000, 14.000000)"/>
                </g>
            </g>
        </g>
    </g>
</svg>
